<mxfile host="app.diagrams.net" modified="2021-07-05T09:30:05.888Z" agent="5.0 (Macintosh; Intel Mac OS X 10_15_7) AppleWebKit/537.36 (KHTML, like Gecko) Chrome/91.0.4472.114 Safari/537.36" etag="IEsJfoalw5J9o7fa2D6s" version="14.8.2" type="github">
  <diagram id="wNcdyORLnMgCpVZtSSjO" name="Page-1">
    <mxGraphModel dx="2066" dy="826" grid="1" gridSize="10" guides="1" tooltips="1" connect="1" arrows="1" fold="1" page="1" pageScale="1" pageWidth="850" pageHeight="1100" background="#F1FAEE" math="0" shadow="0">
      <root>
        <mxCell id="0" />
        <mxCell id="1" parent="0" />
        <mxCell id="dsq8KjhU_DbL0s3dKZwA-14" style="edgeStyle=orthogonalEdgeStyle;orthogonalLoop=1;jettySize=auto;html=1;exitX=0.5;exitY=0;exitDx=0;exitDy=0;entryX=0;entryY=0.5;entryDx=0;entryDy=0;sketch=1;curved=1;strokeColor=#457B9D;fontColor=#1D3557;labelBackgroundColor=#F1FAEE;" parent="1" source="dsq8KjhU_DbL0s3dKZwA-1" target="dsq8KjhU_DbL0s3dKZwA-2" edge="1">
          <mxGeometry relative="1" as="geometry" />
        </mxCell>
        <mxCell id="dsq8KjhU_DbL0s3dKZwA-23" style="edgeStyle=orthogonalEdgeStyle;orthogonalLoop=1;jettySize=auto;html=1;exitX=0.5;exitY=1;exitDx=0;exitDy=0;entryX=0;entryY=0.5;entryDx=0;entryDy=0;sketch=1;curved=1;strokeColor=#457B9D;fontColor=#1D3557;labelBackgroundColor=#F1FAEE;" parent="1" source="dsq8KjhU_DbL0s3dKZwA-1" target="dsq8KjhU_DbL0s3dKZwA-4" edge="1">
          <mxGeometry relative="1" as="geometry" />
        </mxCell>
        <mxCell id="dsq8KjhU_DbL0s3dKZwA-24" style="edgeStyle=orthogonalEdgeStyle;orthogonalLoop=1;jettySize=auto;html=1;exitX=1;exitY=0.5;exitDx=0;exitDy=0;entryX=0;entryY=0.5;entryDx=0;entryDy=0;sketch=1;curved=1;strokeColor=#457B9D;fontColor=#1D3557;labelBackgroundColor=#F1FAEE;" parent="1" source="dsq8KjhU_DbL0s3dKZwA-1" target="dsq8KjhU_DbL0s3dKZwA-3" edge="1">
          <mxGeometry relative="1" as="geometry" />
        </mxCell>
        <mxCell id="WJZ0039dIGgflPWvkZVf-2" style="edgeStyle=orthogonalEdgeStyle;orthogonalLoop=1;jettySize=auto;html=1;exitX=0.5;exitY=1;exitDx=0;exitDy=0;entryX=0;entryY=0.5;entryDx=0;entryDy=0;curved=1;" edge="1" parent="1" source="dsq8KjhU_DbL0s3dKZwA-1" target="WJZ0039dIGgflPWvkZVf-1">
          <mxGeometry relative="1" as="geometry" />
        </mxCell>
        <mxCell id="dsq8KjhU_DbL0s3dKZwA-1" value="2021上半年总结" style="whiteSpace=wrap;html=1;rounded=1;sketch=1;fillColor=#A8DADC;strokeColor=#457B9D;fontColor=#1D3557;" parent="1" vertex="1">
          <mxGeometry x="140" y="320" width="120" height="60" as="geometry" />
        </mxCell>
        <mxCell id="dsq8KjhU_DbL0s3dKZwA-15" style="edgeStyle=orthogonalEdgeStyle;orthogonalLoop=1;jettySize=auto;html=1;exitX=1;exitY=0.25;exitDx=0;exitDy=0;entryX=0;entryY=0.5;entryDx=0;entryDy=0;sketch=1;curved=1;strokeColor=#457B9D;fontColor=#1D3557;labelBackgroundColor=#F1FAEE;" parent="1" source="dsq8KjhU_DbL0s3dKZwA-2" target="dsq8KjhU_DbL0s3dKZwA-11" edge="1">
          <mxGeometry relative="1" as="geometry" />
        </mxCell>
        <mxCell id="dsq8KjhU_DbL0s3dKZwA-16" style="edgeStyle=orthogonalEdgeStyle;orthogonalLoop=1;jettySize=auto;html=1;exitX=1;exitY=0.75;exitDx=0;exitDy=0;entryX=0;entryY=0.5;entryDx=0;entryDy=0;sketch=1;curved=1;strokeColor=#457B9D;fontColor=#1D3557;labelBackgroundColor=#F1FAEE;" parent="1" source="dsq8KjhU_DbL0s3dKZwA-2" target="dsq8KjhU_DbL0s3dKZwA-12" edge="1">
          <mxGeometry relative="1" as="geometry" />
        </mxCell>
        <mxCell id="dsq8KjhU_DbL0s3dKZwA-2" value="调研与长线技术方案&lt;span style=&quot;color: rgba(0 , 0 , 0 , 0) ; font-family: monospace ; font-size: 0px&quot;&gt;%3CmxGraphModel%3E%3Croot%3E%3CmxCell%20id%3D%220%22%2F%3E%3CmxCell%20id%3D%221%22%20parent%3D%220%22%2F%3E%3CmxCell%20id%3D%222%22%20value%3D%222021%E4%B8%8A%E5%8D%8A%E5%B9%B4%E6%80%BB%E7%BB%93%22%20style%3D%22rounded%3D1%3BwhiteSpace%3Dwrap%3Bhtml%3D1%3B%22%20vertex%3D%221%22%20parent%3D%221%22%3E%3CmxGeometry%20x%3D%22340%22%20y%3D%22330%22%20width%3D%22120%22%20height%3D%2260%22%20as%3D%22geometry%22%2F%3E%3C%2FmxCell%3E%3C%2Froot%3E%3C%2FmxGraphModel%3E&lt;/span&gt;" style="whiteSpace=wrap;html=1;rounded=1;sketch=1;fillColor=#A8DADC;strokeColor=#457B9D;fontColor=#1D3557;" parent="1" vertex="1">
          <mxGeometry x="340" y="180" width="120" height="60" as="geometry" />
        </mxCell>
        <mxCell id="dsq8KjhU_DbL0s3dKZwA-17" style="edgeStyle=orthogonalEdgeStyle;orthogonalLoop=1;jettySize=auto;html=1;exitX=1;exitY=0.25;exitDx=0;exitDy=0;entryX=0;entryY=0.5;entryDx=0;entryDy=0;sketch=1;curved=1;strokeColor=#457B9D;fontColor=#1D3557;labelBackgroundColor=#F1FAEE;" parent="1" source="dsq8KjhU_DbL0s3dKZwA-3" target="dsq8KjhU_DbL0s3dKZwA-8" edge="1">
          <mxGeometry relative="1" as="geometry" />
        </mxCell>
        <mxCell id="dsq8KjhU_DbL0s3dKZwA-18" style="edgeStyle=orthogonalEdgeStyle;orthogonalLoop=1;jettySize=auto;html=1;exitX=1;exitY=0.5;exitDx=0;exitDy=0;entryX=0;entryY=0.5;entryDx=0;entryDy=0;sketch=1;curved=1;strokeColor=#457B9D;fontColor=#1D3557;labelBackgroundColor=#F1FAEE;" parent="1" source="dsq8KjhU_DbL0s3dKZwA-3" target="dsq8KjhU_DbL0s3dKZwA-9" edge="1">
          <mxGeometry relative="1" as="geometry" />
        </mxCell>
        <mxCell id="dsq8KjhU_DbL0s3dKZwA-19" style="edgeStyle=orthogonalEdgeStyle;orthogonalLoop=1;jettySize=auto;html=1;exitX=1;exitY=0.75;exitDx=0;exitDy=0;entryX=0;entryY=0.5;entryDx=0;entryDy=0;sketch=1;curved=1;strokeColor=#457B9D;fontColor=#1D3557;labelBackgroundColor=#F1FAEE;" parent="1" source="dsq8KjhU_DbL0s3dKZwA-3" target="dsq8KjhU_DbL0s3dKZwA-10" edge="1">
          <mxGeometry relative="1" as="geometry" />
        </mxCell>
        <mxCell id="dsq8KjhU_DbL0s3dKZwA-3" value="生态破圈" style="whiteSpace=wrap;html=1;rounded=1;sketch=1;fillColor=#A8DADC;strokeColor=#457B9D;fontColor=#1D3557;" parent="1" vertex="1">
          <mxGeometry x="340" y="320" width="120" height="60" as="geometry" />
        </mxCell>
        <mxCell id="dsq8KjhU_DbL0s3dKZwA-20" style="edgeStyle=orthogonalEdgeStyle;orthogonalLoop=1;jettySize=auto;html=1;exitX=1;exitY=0.25;exitDx=0;exitDy=0;entryX=0;entryY=0.5;entryDx=0;entryDy=0;sketch=1;curved=1;strokeColor=#457B9D;fontColor=#1D3557;labelBackgroundColor=#F1FAEE;" parent="1" source="dsq8KjhU_DbL0s3dKZwA-4" target="dsq8KjhU_DbL0s3dKZwA-5" edge="1">
          <mxGeometry relative="1" as="geometry" />
        </mxCell>
        <mxCell id="dsq8KjhU_DbL0s3dKZwA-21" style="edgeStyle=orthogonalEdgeStyle;orthogonalLoop=1;jettySize=auto;html=1;exitX=1;exitY=0.5;exitDx=0;exitDy=0;entryX=0;entryY=0.5;entryDx=0;entryDy=0;sketch=1;curved=1;strokeColor=#457B9D;fontColor=#1D3557;labelBackgroundColor=#F1FAEE;" parent="1" source="dsq8KjhU_DbL0s3dKZwA-4" target="dsq8KjhU_DbL0s3dKZwA-6" edge="1">
          <mxGeometry relative="1" as="geometry" />
        </mxCell>
        <mxCell id="dsq8KjhU_DbL0s3dKZwA-22" style="edgeStyle=orthogonalEdgeStyle;orthogonalLoop=1;jettySize=auto;html=1;exitX=1;exitY=0.75;exitDx=0;exitDy=0;entryX=0;entryY=0.5;entryDx=0;entryDy=0;sketch=1;curved=1;strokeColor=#457B9D;fontColor=#1D3557;labelBackgroundColor=#F1FAEE;" parent="1" source="dsq8KjhU_DbL0s3dKZwA-4" target="dsq8KjhU_DbL0s3dKZwA-7" edge="1">
          <mxGeometry relative="1" as="geometry" />
        </mxCell>
        <mxCell id="dsq8KjhU_DbL0s3dKZwA-4" value="核心功能开发" style="whiteSpace=wrap;html=1;rounded=1;sketch=1;fillColor=#A8DADC;strokeColor=#457B9D;fontColor=#1D3557;" parent="1" vertex="1">
          <mxGeometry x="340" y="460" width="120" height="60" as="geometry" />
        </mxCell>
        <mxCell id="dsq8KjhU_DbL0s3dKZwA-5" value="自定义op的C++ API" style="whiteSpace=wrap;html=1;rounded=1;sketch=1;fillColor=#A8DADC;strokeColor=#457B9D;fontColor=#1D3557;" parent="1" vertex="1">
          <mxGeometry x="500" y="440" width="180" height="30" as="geometry" />
        </mxCell>
        <mxCell id="dsq8KjhU_DbL0s3dKZwA-6" value="sub_layers修复" style="whiteSpace=wrap;html=1;rounded=1;sketch=1;fillColor=#A8DADC;strokeColor=#457B9D;fontColor=#1D3557;" parent="1" vertex="1">
          <mxGeometry x="500" y="475" width="180" height="30" as="geometry" />
        </mxCell>
        <mxCell id="dsq8KjhU_DbL0s3dKZwA-7" value="tanh double grad支持" style="whiteSpace=wrap;html=1;rounded=1;sketch=1;fillColor=#A8DADC;strokeColor=#457B9D;fontColor=#1D3557;" parent="1" vertex="1">
          <mxGeometry x="500" y="510" width="180" height="30" as="geometry" />
        </mxCell>
        <mxCell id="dsq8KjhU_DbL0s3dKZwA-8" value="DeepMD模型支持&lt;span style=&quot;color: rgba(0 , 0 , 0 , 0) ; font-family: monospace ; font-size: 0px&quot;&gt;%3CmxGraphModel%3E%3Croot%3E%3CmxCell%20id%3D%220%22%2F%3E%3CmxCell%20id%3D%221%22%20parent%3D%220%22%2F%3E%3CmxCell%20id%3D%222%22%20value%3D%22%E8%87%AA%E5%AE%9A%E4%B9%89op%E7%9A%84C%2B%2B%20API%22%20style%3D%22rounded%3D1%3BwhiteSpace%3Dwrap%3Bhtml%3D1%3B%22%20vertex%3D%221%22%20parent%3D%221%22%3E%3CmxGeometry%20x%3D%22500%22%20y%3D%22420%22%20width%3D%22180%22%20height%3D%2230%22%20as%3D%22geometry%22%2F%3E%3C%2FmxCell%3E%3C%2Froot%3E%3C%2FmxGraphModel%3E&lt;/span&gt;" style="whiteSpace=wrap;html=1;rounded=1;sketch=1;fillColor=#A8DADC;strokeColor=#457B9D;fontColor=#1D3557;" parent="1" vertex="1">
          <mxGeometry x="500" y="290" width="180" height="30" as="geometry" />
        </mxCell>
        <mxCell id="dsq8KjhU_DbL0s3dKZwA-9" value="DeepMD自定义Op实现" style="whiteSpace=wrap;html=1;rounded=1;sketch=1;fillColor=#A8DADC;strokeColor=#457B9D;fontColor=#1D3557;" parent="1" vertex="1">
          <mxGeometry x="500" y="335" width="180" height="30" as="geometry" />
        </mxCell>
        <mxCell id="dsq8KjhU_DbL0s3dKZwA-10" value="Paddle框架内功能支持" style="whiteSpace=wrap;html=1;rounded=1;sketch=1;fillColor=#A8DADC;strokeColor=#457B9D;fontColor=#1D3557;" parent="1" vertex="1">
          <mxGeometry x="500" y="380" width="180" height="30" as="geometry" />
        </mxCell>
        <mxCell id="dsq8KjhU_DbL0s3dKZwA-11" value="Pytorch调研" style="whiteSpace=wrap;html=1;rounded=1;sketch=1;fillColor=#A8DADC;strokeColor=#457B9D;fontColor=#1D3557;" parent="1" vertex="1">
          <mxGeometry x="500" y="170" width="180" height="30" as="geometry" />
        </mxCell>
        <mxCell id="dsq8KjhU_DbL0s3dKZwA-12" value="飞桨动态图数据结构及执行体系重构" style="whiteSpace=wrap;html=1;rounded=1;sketch=1;fillColor=#A8DADC;strokeColor=#457B9D;fontColor=#1D3557;" parent="1" vertex="1">
          <mxGeometry x="500" y="220" width="180" height="30" as="geometry" />
        </mxCell>
        <mxCell id="WJZ0039dIGgflPWvkZVf-1" value="培养新人" style="whiteSpace=wrap;html=1;rounded=1;sketch=1;fillColor=#A8DADC;strokeColor=#457B9D;fontColor=#1D3557;" vertex="1" parent="1">
          <mxGeometry x="340" y="600" width="120" height="60" as="geometry" />
        </mxCell>
      </root>
    </mxGraphModel>
  </diagram>
</mxfile>
